# xmcd
#
# Track frame offsets:
#	150
#	12795
#	27063
#	43804
#	63896
#	81594
#	96852
#	112183
#	122262
#	136255
#	148488
#	162806
#	173425
#	196269
#	211252
#	222553
#	233864
#	250115
#	261503
#	278172
#	292822
#	304922
#
# Disc length: 4214 seconds
#
# Revision: 1
# Processed by: cddbd v1.5.2PL0 Copyright (c) Steve Scherf et al.
# Submitted via: audiograbber 1.83.01
#
DISCID=41107416
DTITLE=Diamond Back of Texas - Diamond Back of Texas 021
DYEAR=2008
DGENRE=Country
TTITLE0=Branded Country - Buddy J
TTITLE1=I큞l Go Somewhere And Sing My Song Again  - Bruce Greaves
TTITLE2=I큞l Be There  - Mitch Snow
TTITLE3=Red Bob  - Tommy Townsend
TTITLE4=Will You Come To Heaven With Me  - Dr Fry큦 Texas Medicine Band
TTITLE5=Mother  - Annie Harrison
TTITLE6=All My Ex큦 Live In Texas - B. Jeff Stone
TTITLE7=Pride  - Marilyn Mcconnell
TTITLE8=A Song For Lisa - Raincheck
TTITLE9=The Whells Keep Rolling  - Steve Cooper
TTITLE10=He큦 An Outlaw  - James Petteway
TTITLE11=Mr Shorty  - B. Jeff Stone
TTITLE12=It큦 Later Than It큦 Ever Been Before - Steve Bounds
TTITLE13=The Girl You Left Behind  - Raincheck
TTITLE14=My Wonderful Wife - Jim Mobley
TTITLE15=Plaza Fais Do Do  - John Martindale
TTITLE16=Sonny  - B. Jeff Stone
TTITLE17=That큦 All That Matters To Me - Stan Lowhon
TTITLE18=Bad Weasther  - Woodie Cochran
TTITLE19=The Old Florida Moon  - John Martindale
TTITLE20=The New Cotton Eyed Joe - B. Jeff Stone& His Newsboy Band
TTITLE21=I Walked On Sacred Ground  - Lenaye Pearson
EXTD=
EXTT0=
EXTT1=
EXTT2=
EXTT3=
EXTT4=
EXTT5=
EXTT6=
EXTT7=
EXTT8=
EXTT9=
EXTT10=
EXTT11=
EXTT12=
EXTT13=
EXTT14=
EXTT15=
EXTT16=
EXTT17=
EXTT18=
EXTT19=
EXTT20=
EXTT21=
PLAYORDER=
